<?xml version="1.0" encoding="utf-8"?>
<svg viewBox="377.52142333984375 587.6336059570312 105.59085083007812 9.00408935546875" width="105.59085083007812" height="9.00408935546875" xmlns="http://www.w3.org/2000/svg"><path fill="#CCCCCC" d="M721.2,1137.7c0.2,0.1,0.3,0,0.4-0.2c0.1-0.2,0-0.3-0.2-0.4c-18.4-6.1-36.7-8.9-54.3-8.4&#10;&#9;&#9;&#9;c-12.5,0.4-24.3,2.4-35.2,6c-0.2-0.1-0.4-0.1-0.7-0.2c19-8,47-12,78.6-2.9c0.2,0,0.3,0,0.4-0.2c0-0.2,0-0.3-0.2-0.4&#10;&#9;&#9;&#9;c-17.1-4.9-34.2-6.4-50.9-4.4c-10.4,1.3-20.2,3.8-28.8,7.6c-4-1.4-7.3-3.3-9.3-5.3c-0.1-0.1-0.3-0.1-0.4,0&#10;&#9;&#9;&#9;c-2.1,2.1-5.4,3.9-9.3,5.3c-8.6-3.7-18.3-6.3-28.8-7.6c-16.7-2-33.8-0.5-50.9,4.4c-0.2,0-0.3,0.2-0.2,0.4c0,0.2,0.2,0.3,0.4,0.2&#10;&#9;&#9;&#9;c31.6-9.1,59.6-5.1,78.6,2.9c-0.2,0.1-0.4,0.1-0.7,0.2c-10.9-3.6-22.7-5.7-35.2-6c-17.6-0.5-35.9,2.3-54.3,8.4&#10;&#9;&#9;&#9;c-0.2,0.1-0.2,0.2-0.2,0.4c0.1,0.2,0.2,0.2,0.4,0.2c31.3-10.3,62.2-11.2,88.3-2.6c-2.6,0.8-5.5,1.3-8.4,1.7&#10;&#9;&#9;&#9;c-7.6,0.9-19,0.6-30.8-5.8c-0.1-0.1-0.3,0-0.4,0.1c-0.1,0.1,0,0.3,0.1,0.4c9,4.8,17.8,6.2,24.8,6.2c2.3,0,4.4-0.1,6.3-0.4&#10;&#9;&#9;&#9;c3.3-0.4,6.5-1,9.4-2c3.7,1.3,7.4,2.7,10.9,4.4c0,0,0,0,0,0c0,0,0,0,0,0c0,0,0,0,0,0c0,0,0,0,0,0c0,0,0,0,0.1,0c0,0,0,0,0,0h0&#10;&#9;&#9;&#9;c0,0,0,0,0,0c0,0,0,0,0,0s0,0,0,0c0,0,0,0,0,0h0c0,0,0,0,0,0c0,0,0,0,0.1,0c0,0,0,0,0,0c0,0,0,0,0,0c0,0,0,0,0,0c0,0,0,0,0,0&#10;&#9;&#9;&#9;c3.5-1.7,7.2-3.1,10.9-4.4c2.9,0.9,6.1,1.6,9.4,2c1.9,0.2,4,0.4,6.3,0.4c7.1,0,15.9-1.4,24.8-6.2c0.1-0.1,0.2-0.3,0.1-0.4&#10;&#9;&#9;&#9;c-0.1-0.1-0.3-0.2-0.4-0.1c-11.7,6.3-23.2,6.6-30.8,5.8c-2.9-0.3-5.8-0.9-8.4-1.7C659,1126.5,689.9,1127.3,721.2,1137.7z&#10;&#9;&#9;&#9; M620.8,1129.6c2,1.9,5.1,3.7,8.7,5c-3.1,1.4-6,2.9-8.7,4.6c-2.7-1.7-5.7-3.2-8.7-4.6C615.8,1133.2,618.8,1131.5,620.8,1129.6z&#10;&#9;&#9;&#9; M611.3,1134.9c1.4,0.6,2.8,1.2,4.1,1.9c-1.5-0.6-3.1-1.2-4.6-1.7C610.9,1135,611.1,1135,611.3,1134.9z M626.3,1136.8&#10;&#9;&#9;&#9;c1.3-0.7,2.7-1.3,4.1-1.9c0.2,0.1,0.4,0.1,0.5,0.2C629.4,1135.6,627.9,1136.2,626.3,1136.8z" transform="matrix(0.5235042572021484, 0, 0, 0.5235042572021484, 105.29924774169916, 0.000004561539753922261)"/></svg>